<?xml version="1.0" encoding="utf-8"?>
<!-- Generator: Adobe Illustrator 19.2.1, SVG Export Plug-In . SVG Version: 6.00 Build 0)  -->
<svg version="1.1" id="layer" xmlns="http://www.w3.org/2000/svg" xmlns:xlink="http://www.w3.org/1999/xlink" x="0px" y="0px"
	 viewBox="0 0 652 652" style="enable-background:new 0 0 652 652;" xml:space="preserve">
<style type="text/css">
	.st0{fill:#808183;}
	.st1{fill:#EC1B23;}
	.st2{fill:#F47E1F;}
	.st3{fill:#FDBD0E;}
	.st4{fill:#B7282E;}
</style>
<g>
	<path class="st0" d="M430.1,525.5v-30.1h24.8v30.1h20.5v-76.3h-20.5v28.3h-24.8v-28.3h-20.5v76.3H430.1z M406.3,449.2h-59.8v17.2
		H366v59.1h20.5v-59.1h19.8V449.2z M236.2,448c-23.4,0-37.9,17.7-37.9,39.9c0,21.2,13,38.9,36.7,38.9h0.1
		c23.4,0,38.2-15.6,38.2-40.2C273.2,466.2,260.8,448,236.2,448 M236,510.6h-0.2c-9.9,0-16-9.5-15.8-23.2c0-13.3,6-23.2,15.8-23.2
		c10,0,15.8,10,15.8,23.1C251.6,501.1,245.8,510.6,236,510.6 M322.7,492.6c0,12.1-4,18-12.1,18c-8,0-12-6.5-12-18v-43.4h-20.5v41.7
		c0,24.5,11.1,35.9,31.9,35.9c21.4,0,33.2-11.9,33.2-35.4v-42.1h-20.5V492.6z M163.5,509.9c-7.7,0-15.2-2.4-19.8-4.8l-3.8,16.9
		c4.3,2.3,13.3,4.6,22.4,4.6c22.3,0,32.5-11.2,32.5-24.3c0-10.6-6.1-17.9-19.8-23c-9.6-3.6-13.7-5.1-13.7-8.9c0-3.4,3.4-5.7,9.6-5.7
		c7.6,0,13.2,2.1,16.5,3.6l4.3-16.4c-5-2.1-11.5-3.8-20.6-3.8c-19.2,0-30.7,10.4-30.7,23.9c0,11.3,8.6,18.3,21.5,23
		c8.6,2.9,12,5,12,8.7C173.9,507.5,170.5,509.9,163.5,509.9 M154.6,539.4l-10.9,32.2h4.3l3.3-10.1h11.4l3.4,10.1h4.4l-11-32.2H154.6
		z M152.2,558.2l3.2-9.3c0.6-2,1.1-4,1.6-5.8h0.1c0.5,1.9,0.9,3.8,1.6,5.9l3.2,9.3H152.2z M206.9,558.5c0,7.1-3.1,10.2-7.8,10.2
		c-4.3,0-7.5-3.1-7.5-10.2v-19.1h-4.2v19c0,10,5,13.8,11.6,13.8c7,0,12.2-4,12.2-13.9v-18.8h-4.2V558.5z M241.5,553.3
		c-4.4-1.7-6.4-3.2-6.4-6.2c0-2.2,1.7-4.8,6.1-4.8c2.9,0,5.1,0.9,6.1,1.5l1.1-3.4c-1.4-0.8-3.8-1.5-7.1-1.5
		c-6.3,0-10.4,3.7-10.4,8.7c0,4.5,3.3,7.3,8.5,9.1c4.4,1.6,6.1,3.4,6.1,6.4c0,3.3-2.5,5.5-6.8,5.5c-2.9,0-5.5-0.9-7.4-2.1l-1.1,3.4
		c1.7,1.2,5.1,2.1,8.2,2.1c7.6,0,11.2-4.4,11.2-9.3C249.7,558,246.9,555.5,241.5,553.3 M321.8,556.2v-0.1c3.4-1.1,6.1-4,6.1-8.2
		c0-2.5-1-4.7-2.5-6.1c-2-1.8-4.9-2.7-9.4-2.7c-2.8,0-5.9,0.3-8,0.7v31.8h4.2v-14h3.9c3.8,0.1,5.5,1.8,6.5,6.3
		c0.9,4,1.6,6.7,2.1,7.7h4.3c-0.6-1.3-1.4-4.4-2.4-8.9C325.7,559.4,324.3,557.1,321.8,556.2 M316.4,554.5h-4.3v-11.7
		c0.7-0.2,2.1-0.4,4.1-0.4c4.4,0,7.4,1.8,7.4,6C323.7,552,320.9,554.5,316.4,554.5 M356.2,539.4l-10.9,32.2h4.3l3.3-10.1h11.4
		l3.4,10.1h4.4l-11-32.2H356.2z M353.8,558.2l3.2-9.3c0.6-2,1.1-4,1.6-5.8h0.1c0.5,1.9,0.9,3.8,1.6,5.9l3.2,9.3H353.8z M394.6,539.4
		h-4.2v32.2h18v-3.5h-13.8V539.4z M266.1,542.9h9.8v28.7h4.2v-28.7h9.8v-3.5h-23.9V542.9z M464.4,539.4h-5l-10.9,32.2h4.3l3.3-10.1
		h11.4l3.4,10.1h4.4L464.4,539.4z M457,558.2l3.2-9.3c0.6-2,1.1-4,1.6-5.8h0.1c0.5,1.9,0.9,3.8,1.6,5.9l3.2,9.3H457z M425.9,571.6
		h4.2v-32.2h-4.2V571.6z"/>
	<polygon class="st1" points="560.4,246.4 293.9,79.8 80.1,213.4 143.7,409.1 250.5,342.4 250.5,229.9 390,229.9 390,395.9 
		475.4,428.7 	"/>
	<polygon class="st2" points="379.1,240.8 261.5,240.8 261.5,346.6 268.5,349.3 268.5,256.5 354,256.5 354,382.1 379.1,391.7 	"/>
	<polygon class="st3" points="279.4,267.5 279.4,283.2 322.6,283.2 322.6,370.1 343,377.9 343,267.5 	"/>
	<polygon class="st4" points="475.4,72.1 426.4,162.7 560.4,246.4 	"/>
</g>
</svg>
